# xmcd
#
# Track frame offsets: 
#        150
#        82533
#        181641
#        225540
#        267276
#
# Disc length: 3940 seconds
#
# Revision: 0
# Processed by: cddbd v1.5.2PL0 Copyright (c) Steve Scherf et al.
# Submitted via: ExactAudioCopy v0.99pb5
#
DISCID=280f6205
DTITLE=Nurse With Wound - Stereo Wastelands Etc
DYEAR=2011
DGENRE=Industrial
TTITLE0=Fragments I
TTITLE1=Fragments II
TTITLE2=Fragments III
TTITLE3=Eternity
TTITLE4=Yagga Blues (Single Edit)
EXTD=
EXTT0=
EXTT1=
EXTT2=
EXTT3=
EXTT4=
PLAYORDER=
